<svg width="24" height="24" viewBox="0 0 24 24" fill="none" xmlns="http://www.w3.org/2000/svg">
<g clip-path="url(#clip0_4725_1134)">
<path d="M16.5 0H7.5C3.3585 0 0 3.3585 0 7.5V16.5C0 20.6415 3.3585 24 7.5 24H16.5C20.6415 24 24 20.6415 24 16.5V7.5C24 3.3585 20.6415 0 16.5 0ZM21.75 16.5C21.75 19.395 19.395 21.75 16.5 21.75H7.5C4.605 21.75 2.25 19.395 2.25 16.5V7.5C2.25 4.605 4.605 2.25 7.5 2.25H16.5C19.395 2.25 21.75 4.605 21.75 7.5V16.5Z" fill="#269E96"/>
<path d="M11.9998 6.00012C8.68626 6.00012 5.99976 8.68662 5.99976 12.0001C5.99976 15.3136 8.68626 18.0001 11.9998 18.0001C15.3133 18.0001 17.9998 15.3136 17.9998 12.0001C17.9998 8.68662 15.3133 6.00012 11.9998 6.00012ZM11.9998 15.7501C9.93276 15.7501 8.24976 14.0671 8.24976 12.0001C8.24976 9.93162 9.93276 8.25012 11.9998 8.25012C14.0668 8.25012 15.7498 9.93162 15.7498 12.0001C15.7498 14.0671 14.0668 15.7501 11.9998 15.7501Z" fill="#269E96"/>
<path d="M18.6465 6.32542C19.0745 6.21673 19.3333 5.78169 19.2246 5.35373C19.1159 4.92577 18.6809 4.66694 18.2529 4.77562C17.825 4.88431 17.5661 5.31935 17.6748 5.74731C17.7835 6.17527 18.2185 6.4341 18.6465 6.32542Z" fill="#269E96"/>
</g>
<defs>
<clipPath id="clip0_4725_1134">
<rect width="24" height="24" fill="white"/>
</clipPath>
</defs>
</svg>
