<svg width="24" height="20" viewBox="0 0 24 20" fill="none" xmlns="http://www.w3.org/2000/svg">
<path d="M7.81926 19.0106C16.3103 19.0106 20.9536 11.9761 20.9536 5.87625C20.9536 5.67646 20.9495 5.47749 20.9406 5.27962C21.8418 4.62796 22.6252 3.81476 23.2433 2.88914C22.4162 3.25694 21.5259 3.5042 20.5923 3.61607C21.5453 3.04435 22.2771 2.14034 22.6221 1.06267C21.7302 1.59146 20.7424 1.97563 19.6909 2.18313C18.8485 1.28585 17.6491 0.724731 16.3211 0.724731C13.772 0.724731 11.7046 2.792 11.7046 5.3403C11.7046 5.70274 11.7452 6.05499 11.8243 6.39293C7.98768 6.19988 4.58544 4.36309 2.30889 1.56986C1.91261 2.25193 1.68392 3.04449 1.68392 3.89016C1.68392 5.49152 2.49891 6.90561 3.73811 7.73258C2.98078 7.70932 2.2694 7.50141 1.64746 7.15535C1.64677 7.17476 1.64677 7.19361 1.64677 7.21425C1.64677 9.44993 3.23795 11.3166 5.35048 11.7396C4.96246 11.8451 4.5542 11.9019 4.13316 11.9019C3.83622 11.9019 3.54672 11.8727 3.26547 11.8187C3.85314 13.6528 5.55743 14.9875 7.57791 15.025C5.99788 16.2634 4.00753 17.001 1.84436 17.001C1.47229 17.001 1.1045 16.9797 0.743164 16.937C2.78621 18.2465 5.2122 19.0108 7.8194 19.0108" fill="#269E96"/>
</svg>
